<svg width="38" height="40" viewBox="0 0 38 40" fill="none" xmlns="http://www.w3.org/2000/svg">
<g opacity="0.9" clip-path="url(#clip0_1_968)">
<path d="M37.5949 29.3478C37.5949 30.5009 37.1624 31.6068 36.3926 32.4222C35.6228 33.2375 34.5787 33.6956 33.4901 33.6956H4.7565C3.66784 33.6956 2.62377 33.2375 1.85397 32.4222C1.08417 31.6068 0.651703 30.5009 0.651703 29.3478V9.78258C0.651703 8.62946 1.08417 7.52358 1.85397 6.7082C2.62377 5.89283 3.66784 5.43475 4.7565 5.43475H33.4901C34.5787 5.43475 35.6228 5.89283 36.3926 6.7082C37.1624 7.52358 37.5949 8.62946 37.5949 9.78258V29.3478Z" fill="#009B3A"/>
<path d="M34.2372 19.5652L19.1233 31.6565L4.00943 19.5652L19.1233 7.47284L34.2372 19.5652Z" fill="#FEDF01"/>
<path d="M19.0987 26.5022C22.7588 26.5022 25.7259 23.3594 25.7259 19.4826C25.7259 15.6058 22.7588 12.4631 19.0987 12.4631C15.4386 12.4631 12.4715 15.6058 12.4715 19.4826C12.4715 23.3594 15.4386 26.5022 19.0987 26.5022Z" fill="#002776"/>
<path d="M13.2503 16.1815C12.906 16.8685 12.6729 17.6118 12.5607 18.3804C16.6604 18.0652 22.2245 20.4359 24.6124 23.375C25.0249 22.7185 25.3308 21.9837 25.5185 21.1967C22.5713 18.1446 17.3941 16.1641 13.2503 16.1815Z" fill="#CBE9D4"/>
<path d="M12.9661 19.8185H13.9923V20.9054H12.9661V19.8185ZM13.9923 21.9924H15.0185V23.0794H13.9923V21.9924Z" fill="#88C9F9"/>
<path d="M16.0447 19.8185H17.0709V20.9055H16.0447V19.8185ZM18.0971 20.9055H19.1233V21.9924H18.0971V20.9055ZM22.2019 23.0794H23.2281V24.1663H22.2019V23.0794ZM19.1233 24.1663H20.1495V25.2533H19.1233V24.1663ZM22.2019 17.6446H23.2281V18.7315H22.2019V17.6446Z" fill="#55ACEE"/>
</g>
<defs>
<clipPath id="clip0_1_968">
<rect width="36.9432" height="39.1304" fill="white" transform="translate(0.651703)"/>
</clipPath>
</defs>
</svg>
